<svg width="12" height="12" viewBox="0 0 12 12" fill="none" xmlns="http://www.w3.org/2000/svg">
<path d="M6 10.8001C7.27304 10.8001 8.49394 10.2944 9.39411 9.39421C10.2943 8.49403 10.8 7.27313 10.8 6.00009C10.8 4.72705 10.2943 3.50615 9.39411 2.60598C8.49394 1.7058 7.27304 1.20009 6 1.20009C4.72696 1.20009 3.50606 1.7058 2.60589 2.60598C1.70571 3.50615 1.2 4.72705 1.2 6.00009C1.2 7.27313 1.70571 8.49403 2.60589 9.39421C3.50606 10.2944 4.72696 10.8001 6 10.8001ZM6 9.15527e-05C6.78793 9.15527e-05 7.56815 0.155286 8.2961 0.456814C9.02405 0.758343 9.68549 1.2003 10.2426 1.75745C10.7998 2.3146 11.2417 2.97604 11.5433 3.70399C11.8448 4.43194 12 5.21216 12 6.00009C12 7.59139 11.3679 9.11751 10.2426 10.2427C9.11742 11.368 7.5913 12.0001 6 12.0001C2.682 12.0001 0 9.30009 0 6.00009C0 4.40879 0.632141 2.88267 1.75736 1.75745C2.88258 0.632233 4.4087 9.15527e-05 6 9.15527e-05ZM6.3 3.00009V6.15009L9 7.75209L8.55 8.49009L5.4 6.60009V3.00009H6.3Z" fill="currentColor"/>
</svg>
