<svg width="10" height="12" viewBox="0 0 10 12" fill="none" xmlns="http://www.w3.org/2000/svg">
<path d="M5.00001 9.15527e-05C2.36001 9.15527e-05 0.200012 2.16009 0.200012 4.80009C0.200012 8.04009 4.40001 11.7001 4.58001 11.8801C4.70001 11.9401 4.88001 12.0001 5.00001 12.0001C5.12001 12.0001 5.30001 11.9401 5.42001 11.8801C5.60001 11.7001 9.80001 8.04009 9.80001 4.80009C9.80001 2.16009 7.64001 9.15527e-05 5.00001 9.15527e-05ZM5.00001 10.6201C3.74001 9.42009 1.40001 6.84009 1.40001 4.80009C1.40001 2.82009 3.02001 1.20009 5.00001 1.20009C6.98001 1.20009 8.60001 2.82009 8.60001 4.80009C8.60001 6.78009 6.26001 9.42009 5.00001 10.6201ZM5.00001 2.40009C3.68001 2.40009 2.60001 3.48009 2.60001 4.80009C2.60001 6.12009 3.68001 7.20009 5.00001 7.20009C6.32001 7.20009 7.40001 6.12009 7.40001 4.80009C7.40001 3.48009 6.32001 2.40009 5.00001 2.40009ZM5.00001 6.00009C4.34001 6.00009 3.80001 5.46009 3.80001 4.80009C3.80001 4.14009 4.34001 3.60009 5.00001 3.60009C5.66001 3.60009 6.20001 4.14009 6.20001 4.80009C6.20001 5.46009 5.66001 6.00009 5.00001 6.00009Z" fill="currentColor"/>
</svg>
