<svg width="14" height="18" viewBox="0 0 14 18" fill="none" xmlns="http://www.w3.org/2000/svg">
<path d="M1 3.91489C1 2.89471 1 2.38462 1.20762 1.99477C1.39023 1.652 1.68161 1.37332 2.04 1.19866C2.44762 1.00009 2.98095 1.00009 4.04762 1.00009H9.38095C10.4476 1.00009 10.981 1.00009 11.3886 1.19866C11.747 1.37332 12.0383 1.652 12.221 1.99477C12.4286 2.38462 12.4286 2.89471 12.4286 3.91489V16.0341C12.4286 16.4768 12.4286 16.6981 12.3324 16.8193C12.2908 16.872 12.2378 16.9154 12.1769 16.9465C12.1161 16.9777 12.0489 16.9958 11.98 16.9996C11.821 17.0087 11.6286 16.8858 11.2438 16.6407L6.71429 13.7523L2.18476 16.6398C1.8 16.8858 1.60762 17.0087 1.44762 16.9996C1.37889 16.9956 1.31188 16.9775 1.25121 16.9463C1.19054 16.9152 1.13765 16.8718 1.09619 16.8193C1 16.6981 1 16.4768 1 16.0341V3.91489Z" stroke="currentColor" stroke-width="1.5" stroke-linecap="round" stroke-linejoin="round"/>
</svg>
